<?xml version="1.0" encoding="UTF-8"?>
<svg id="Layer_2" data-name="Layer 2" xmlns="http://www.w3.org/2000/svg" viewBox="0 0 149.57 69.61">
  <defs>
    <style>
      .cls-1 {
        fill: #727272;
      }

      .cls-2 {
        fill: #f4f2f4;
      }
    </style>
  </defs>
  <path class="cls-2" d="M147.17,15.39v54.23H2.39v-20.36c0-5.5,4.12-10.07,9.6-10.63l43.96-4.55c3.92-.41,7.44-2.3,9.93-5.34l17.06-20.82c2.87-3.52,7.13-5.53,11.65-5.53h39.58c7.16,0,12.99,5.84,12.99,12.99Z"/>
  <path class="cls-1" d="M149.57,15.39v54.23h-2.39V15.39c0-7.16-5.84-12.99-12.99-12.99h-39.58c-4.52,0-8.78,2.01-11.65,5.53l-17.06,20.82c-2.49,3.04-6.01,4.93-9.93,5.34l-43.96,4.55c-5.48.55-9.6,5.12-9.6,10.63v20.36H0v-20.36c0-6.72,5.05-12.32,11.73-13.02l43.98-4.55c3.28-.34,6.22-1.91,8.3-4.47l17.09-20.82c3.33-4.04,8.26-6.39,13.5-6.39h39.58c8.47,0,15.39,6.92,15.39,15.39Z"/>
</svg>