<?xml version="1.0" encoding="UTF-8"?>
<svg id="Layer_1" data-name="Layer 1" xmlns="http://www.w3.org/2000/svg" viewBox="0 0 149.57 64.72">
  <defs>
    <style>
      .cls-1 {
        fill: #727272;
      }

      .cls-2 {
        fill: #f4f2f4;
      }
    </style>
  </defs>
  <path class="cls-2" d="M147.17,11.97v52.75H2.39V11.97C2.39,6.68,6.68,2.39,11.97,2.39h125.63c5.29,0,9.57,4.28,9.57,9.57Z"/>
  <path class="cls-2" d="M148.37,11.97v52.75h-1.2V11.97c0-5.29-4.28-9.57-9.57-9.57H11.97C6.68,2.39,2.39,6.68,2.39,11.97v52.75h-1.2V11.97C1.2,6.01,6.01,1.2,11.97,1.2h125.63c5.96,0,10.77,4.81,10.77,10.77Z"/>
  <path class="cls-1" d="M149.57,11.97v52.75h-2.39V11.97c0-5.29-4.28-9.57-9.57-9.57H11.97C6.68,2.39,2.39,6.68,2.39,11.97v52.75H0V11.97C0,5.36,5.36,0,11.97,0h125.63c6.61,0,11.97,5.36,11.97,11.97Z"/>
</svg>