<?xml version="1.0" encoding="UTF-8"?>
<svg id="Layer_1" data-name="Layer 1" xmlns="http://www.w3.org/2000/svg" viewBox="0 0 363.55 128.06">
  <defs>
    <style>
      .cls-1 {
        fill: none;
      }

      .cls-2 {
        fill: #fcc33d;
      }

      .cls-3 {
        fill: #050505;
      }

      .cls-3, .cls-4, .cls-5, .cls-6 {
        stroke: #fff;
        stroke-miterlimit: 10;
      }

      .cls-3, .cls-5, .cls-6 {
        stroke-width: .75px;
      }

      .cls-7 {
        fill: #fff;
      }

      .cls-4 {
        fill: #929292;
      }

      .cls-5 {
        fill: #949494;
      }

      .cls-6 {
        fill: #fbc340;
      }
    </style>
  </defs>
  <path class="cls-4" d="M160.18,49.96l-35.81-20.67c-1.47-.85-3.28-.85-4.75,0l-34.05,19.66-34.05-19.66c-1.47-.85-3.28-.85-4.75,0L10.96,49.96c-1.47.85-2.37,2.42-2.37,4.11v41.35c0,1.69.91,3.26,2.37,4.11l35.81,20.67c1.47.85,3.28.85,4.75,0l34.05-19.66,34.05,19.66c1.47.85,3.28.85,4.75,0l35.81-20.67c1.47-.85,2.37-2.42,2.37-4.11v-41.35c0-1.69-.91-3.26-2.37-4.11ZM80.64,93.66l-30.59,17.66c-.49.28-1.09.28-1.58,0l-30.59-17.66c-.49-.28-.79-.81-.79-1.37v-35.33c0-.57.3-1.09.79-1.37l30.59-17.66c.49-.28,1.09-.28,1.58,0l30.59,17.66c.49.28.79.81.79,1.37v35.33c0,.56-.3,1.09-.79,1.37ZM154.27,92.29c0,.56-.3,1.09-.79,1.37l-30.59,17.66c-.49.28-1.09.28-1.58,0l-30.59-17.66c-.49-.28-.79-.81-.79-1.37v-35.33c0-.57.3-1.09.79-1.37l30.59-17.66c.49-.28,1.09-.28,1.58,0l30.59,17.66c.49.28.79.81.79,1.37v35.33Z"/>
  <g>
    <path d="M93.07,102.46c-1.14,1.23-2.23,2.57-3.24,4.41-.39.7-.76,1.48-1.12,2.35-.69,1.65-2.1,5.51-2.9,9.35-.09.42-.17.85-.24,1.28-.07-.42-.15-.85-.24-1.28-.8-3.84-2.21-7.7-2.9-9.35-.36-.87-.74-1.65-1.12-2.35-1.01-1.84-2.1-3.18-3.24-4.41.22-.08.44-.15.66-.21,2.1-.64,4.32-1,6.62-1.04.05,0,.11,0,.16,0,.02,0,.05,0,.07,0h.07c.05,0,.11,0,.16,0,2.3.03,4.52.4,6.62,1.04.22.07.44.14.66.21Z"/>
    <path class="cls-1" d="M85.79,101.2h0c-.05,0-.11,0-.16,0,.05,0,.09,0,.15,0h.01Z"/>
    <path class="cls-1" d="M58.87,88.1s.01.04.02.06c.02-.03.03-.06.04-.09-.02,0-.04.01-.06.02Z"/>
    <rect class="cls-1" x="85.73" y="55.61" width=".03" height="0"/>
    <path class="cls-2" d="M97.39,97.87c-1.27,1.55-2.51,2.73-3.7,3.94-.21.21-.41.43-.62.65-.22-.08-.44-.15-.66-.21-2.1-.64-4.32-1-6.62-1.04h0s-.01,0-.01,0c-.05,0-.1,0-.15,0h-.07s-.05,0-.07,0c-.05,0-.09,0-.15,0h-.01c-2.3.04-4.52.41-6.62,1.05-.22.07-.44.14-.66.21-.21-.22-.41-.44-.62-.65-1.19-1.22-2.43-2.4-3.7-3.94.43-.23.87-.45,1.32-.66.45-.21.9-.4,1.37-.58.14-.06.27-.11.41-.15.17-.07.34-.13.52-.19.19-.07.38-.13.57-.19.71-.23,1.44-.43,2.18-.59.15-.04.31-.07.46-.1.07-.02.15-.03.22-.05.23-.05.46-.09.69-.12.5-.09,1.01-.15,1.52-.21.25-.03.51-.06.77-.07.26-.02.52-.03.78-.05.26-.01.52-.02.78-.03.05,0,.09,0,.14,0,.05,0,.1,0,.15,0,.05,0,.09,0,.14,0,.26,0,.52.01.78.03.26.01.52.03.78.05.26.01.51.04.77.07.51.06,1.02.12,1.52.21.23.04.46.08.69.12.07.01.15.03.22.05.15.03.31.06.46.1.74.16,1.47.36,2.18.59.19.06.39.12.57.19.18.06.35.12.52.19.14.05.27.1.41.15.46.18.92.37,1.37.58.45.21.89.42,1.32.66Z"/>
    <path class="cls-1" d="M85.5,101.21c-.05,0-.11,0-.16,0h0s.01,0,.01,0c.05,0,.1,0,.15,0Z"/>
    <path class="cls-1" d="M85.79,94.88h0s-.09,0-.14,0c.05,0,.09,0,.14,0h0Z"/>
    <path d="M101.5,91.24c-.05.12-.11.23-.16.35-1.34,2.76-2.66,4.71-3.95,6.28-.43-.23-.87-.45-1.32-.66-.45-.21-.9-.4-1.37-.58-.14-.06-.27-.11-.41-.15-.17-.07-.34-.13-.52-.19-.19-.07-.38-.13-.57-.19-.71-.23-1.44-.43-2.18-.59-.15-.04-.31-.07-.46-.1-.07-.02-.15-.03-.22-.05-.23-.05-.46-.09-.69-.12-.5-.09-1.01-.16-1.52-.21-.25-.03-.51-.06-.77-.07-.26-.03-.51-.04-.78-.05-.26-.02-.52-.03-.78-.03h0s0,0,0,0c-.05,0-.09,0-.14,0-.05,0-.1,0-.15,0-.05,0-.09,0-.14,0h0c-.26,0-.52.02-.78.03-.26,0-.52.02-.78.05-.26.01-.51.04-.77.07-.51.05-1.02.12-1.52.21-.24.03-.47.08-.69.12-.07.01-.15.03-.22.05-.15.03-.31.06-.46.1-.74.16-1.47.36-2.18.59-.19.06-.39.12-.57.19-.18.06-.35.12-.52.19-.14.05-.27.1-.41.15-.46.18-.92.37-1.37.58-.45.21-.89.42-1.32.66-1.29-1.57-2.61-3.52-3.95-6.28-.06-.12-.11-.23-.16-.35,1.01-.67,2.07-1.28,3.17-1.82.15-.08.31-.15.47-.23.18-.09.37-.17.55-.25.13-.06.27-.12.4-.18.16-.07.33-.14.49-.2.32-.14.65-.26.98-.38.32-.12.64-.23.97-.33.77-.25,1.56-.48,2.35-.66.16-.04.32-.08.48-.11.21-.05.41-.09.61-.13.14-.03.29-.06.43-.08.35-.06.71-.12,1.06-.17.29-.04.57-.08.87-.11.11-.01.21-.02.32-.03.31-.03.63-.06.94-.08.36-.03.72-.05,1.08-.06.18,0,.36-.01.54-.01.05,0,.1,0,.15,0h.12c.05,0,.1,0,.15,0,.18,0,.36,0,.54.01.36,0,.72.03,1.08.06.32.02.63.05.94.08.11.01.21.02.32.03.29.03.58.07.87.11.36.05.71.11,1.06.17.14.03.29.05.43.08.21.04.41.08.61.13.16.03.32.07.48.11.8.18,1.58.41,2.35.66.33.11.65.22.97.33.33.12.66.24.98.38.16.06.33.13.49.2.13.06.27.12.4.18.18.08.37.17.55.25.16.08.32.15.47.23,1.1.54,2.16,1.15,3.17,1.82Z"/>
    <path class="cls-1" d="M85.49,94.88s-.09,0-.14,0h0s0,0,0,0c.05,0,.09,0,.14,0Z"/>
    <path class="cls-1" d="M85.78,86.4h0c-.05,0-.1,0-.15,0h.15Z"/>
    <path class="cls-2" d="M103.74,85.39c-.47,1.56-1.17,3.59-2.25,5.85-1.01-.67-2.07-1.28-3.17-1.82-.15-.08-.31-.15-.47-.23-.18-.09-.37-.17-.55-.25-.13-.06-.27-.12-.4-.18-.16-.07-.33-.14-.49-.2-.32-.14-.65-.26-.98-.38-.32-.12-.64-.23-.97-.33-.77-.25-1.56-.48-2.35-.66-.16-.04-.32-.08-.48-.11-.21-.05-.41-.09-.61-.13-.14-.03-.29-.06-.43-.08-.35-.06-.71-.12-1.06-.17-.29-.04-.57-.08-.87-.11-.11-.01-.21-.02-.32-.03-.31-.03-.63-.06-.94-.08-.36-.03-.72-.05-1.08-.06-.18,0-.36-.01-.54-.01h0s-.43,0-.43,0h0c-.18,0-.36,0-.54.02-.36,0-.72.03-1.08.06-.32.02-.63.05-.94.08-.11.01-.21.02-.32.03-.29.03-.58.07-.87.11-.36.05-.71.11-1.06.17-.14.03-.29.05-.43.08-.21.04-.41.08-.61.13-.16.03-.32.07-.48.11-.8.18-1.58.41-2.35.66-.33.11-.65.22-.97.33-.33.12-.66.24-.98.38-.16.06-.33.13-.49.2-.13.06-.27.12-.4.18-.18.08-.37.17-.55.25-.16.08-.32.15-.47.23-1.1.54-2.16,1.15-3.17,1.82-1.07-2.26-1.77-4.29-2.25-5.85,2.12-1.33,4.39-2.44,6.79-3.29.18-.07.37-.13.56-.19.09-.03.19-.06.29-.09.15-.05.3-.1.45-.14.7-.22,1.41-.42,2.14-.59.18-.04.36-.09.54-.12.39-.09.78-.17,1.17-.24.2-.04.39-.08.59-.11.17-.03.34-.06.51-.09.12-.02.25-.04.38-.06.17-.03.34-.05.52-.07.13-.02.25-.03.38-.05.2-.03.4-.05.6-.06.2-.02.4-.04.61-.06.18-.02.35-.03.53-.04.26-.02.53-.03.79-.04.17,0,.34-.01.51-.02.21,0,.41-.01.62-.01.03,0,.07,0,.11,0h.2s.07,0,.11,0c.21,0,.41,0,.62.01.17,0,.34,0,.51.02.27.01.53.03.79.04.18.01.35.03.53.04.21.02.41.03.61.06.2.02.4.04.6.06.13.01.25.03.38.05.18.02.35.04.52.07.13.02.26.03.38.06.17.03.34.06.51.09.2.03.39.06.59.11.39.07.78.15,1.17.24.18.04.36.08.54.12.72.18,1.44.37,2.14.59.15.04.3.09.45.14.1.03.19.06.29.09.18.06.37.12.56.19,2.4.85,4.67,1.96,6.79,3.29Z"/>
    <path class="cls-1" d="M85.51,86.4c-.05,0-.1,0-.15,0h0s.15,0,.15,0Z"/>
    <path class="cls-1" d="M85.77,80.11h-.11.11Z"/>
    <path class="cls-1" d="M58.93,88.08s-.03.06-.04.09c0-.02-.01-.04-.02-.06.02,0,.04-.01.06-.02Z"/>
    <rect class="cls-1" x="85.73" y="50.26" width=".03" height="0"/>
    <rect class="cls-1" x="85.73" y="55.61" width=".03" height="0"/>
    <path class="cls-2" d="M94.42,73.08c-.18-.06-.36-.11-.54-.16-.18-.06-.36-.11-.54-.15-.21-.06-.42-.12-.64-.17-.15-.04-.3-.08-.45-.11-.18-.04-.37-.09-.55-.12-.5-.11-1-.2-1.5-.28-.18-.03-.36-.06-.54-.08-.13-.02-.26-.04-.39-.06-.13-.02-.27-.03-.4-.05-.18-.02-.36-.04-.55-.06-.38-.04-.77-.07-1.15-.09-.17-.01-.33-.02-.5-.03-.3-.01-.6-.02-.9-.03h0s-.13,0-.13,0c-.03,0-.05,0-.07,0,0,0-.02,0-.03,0h-.02s-.02,0-.03,0h-.13c-.3,0-.6.02-.9.03-.17,0-.33.01-.5.03-.39.02-.77.05-1.15.09-.18.02-.37.03-.55.06-.13.02-.27.03-.4.05-.13.02-.26.03-.39.06-.18.02-.36.05-.54.08-.51.08-1.01.18-1.5.28-.18.04-.37.08-.55.12-.15.03-.3.07-.45.11-.21.05-.42.11-.64.17-.18.05-.36.1-.54.15-.18.05-.36.11-.54.16.38-.83.85-1.73,1.42-2.67.51-.83,1.02-1.57,1.53-2.23v-3.52c.75-.08,1.5-.15,2.27-.2.25-.02.5-.03.75-.05.24-.01.47-.03.71-.03.31-.01.61-.03.92-.03.2,0,.4,0,.6-.01.16,0,.32,0,.48,0h.39c.16,0,.32,0,.48,0,.2,0,.4,0,.6.01.31,0,.61.02.92.03.24,0,.47.02.71.03.25.01.5.03.75.05.76.05,1.52.12,2.27.2v3.52c.5.66,1.02,1.4,1.53,2.23.57.94,1.04,1.84,1.42,2.67Z"/>
    <path class="cls-1" d="M85.52,71.69c-.05,0-.1,0-.15,0h0s.13,0,.13,0c0,0,.02,0,.03,0Z"/>
    <path class="cls-1" d="M85.41,50.26h0s.03,0,.06,0h-.06ZM85.36,80.11h.11-.11ZM85.49,71.68h-.09s-.03,0-.04,0c.05,0,.1,0,.15,0,0,0-.02,0-.03,0ZM85.67,55.61s.04,0,.06,0h0s-.06,0-.06,0ZM85.67,71.68s-.04,0-.06,0c.05,0,.1,0,.15,0h0s-.1,0-.1,0Z"/>
    <path d="M115.49,54.5c-5.55-2.25-10.72-3.35-15.04-3.88-3.28-4.62-8.63-7.67-14.71-7.8h-.18s-.04,0-.06,0h-.12c-6.08.12-11.43,3.18-14.71,7.8-4.32.53-9.49,1.63-15.04,3.88-15.28,6.19-24.08,17.3-28,23.05.87.97,5.76,6.32,13.25,9.39,3.89,1.59,8.47,2.57,13.56,2.01,1.57-.18,3.05-.48,4.41-.87.02,0,.04-.01.06-.02,1.49-.43,2.85-.96,4.07-1.52,1.62-.75,2.98-1.56,4.07-2.29.09.34.2.72.32,1.13,2.12-1.33,4.39-2.44,6.79-3.29.18-.07.37-.13.56-.19.09-.03.19-.06.29-.09.15-.05.3-.1.45-.14.7-.22,1.41-.42,2.14-.59.18-.04.36-.09.54-.12.39-.09.78-.17,1.17-.24.2-.04.39-.08.59-.11.17-.03.34-.06.51-.09.12-.02.25-.04.38-.06.17-.03.34-.05.52-.07.13-.02.25-.03.38-.05.2-.03.4-.05.6-.06.2-.03.41-.04.61-.06.18-.02.35-.03.53-.04.26-.02.53-.03.79-.04.17,0,.34-.01.51-.02.21,0,.41-.01.62-.01h0s.41,0,.41,0h0c.21,0,.41,0,.62.02.17,0,.34,0,.51.02.27.01.53.03.79.04.18.01.35.03.53.04.2.01.41.03.61.06.2.02.4.04.6.06.13.01.25.03.38.05.18.02.35.04.52.07.13.02.26.03.38.06.17.03.34.06.51.09.2.03.39.06.59.11.39.07.78.15,1.17.24.18.04.36.08.54.12.72.18,1.44.37,2.14.59.15.04.3.09.45.14.1.03.19.06.29.09.18.06.37.12.56.19,2.4.85,4.67,1.96,6.79,3.29.12-.41.23-.79.32-1.13,1.09.73,2.46,1.54,4.07,2.29,1.22.57,2.58,1.09,4.07,1.52.02,0,.04.01.06.02,1.36.39,2.84.69,4.41.87,5.09.56,9.68-.42,13.56-2.01,7.49-3.07,12.38-8.42,13.25-9.39-3.91-5.75-12.72-16.86-28-23.05ZM95.5,58.45c.58.12,1.19.24,1.83.39,0,0,0,0,0,0,1.95.44,4.14,1.03,6.51,1.82,1.56.52,3.21,1.14,4.91,1.86,1.63.69,3.31,1.47,5.03,2.37l.47,1.68h0s.03.09.03.09h0s0,.03,0,.03h0s.33,1.19.33,1.19l1.62,5.79.08.28c-.64-.4-1.32-.81-2.03-1.22,0,0-.01,0-.02,0,0,0-.01,0-.02-.01,0,0,0,0,0,0-.39-.23-.8-.46-1.22-.69-1.88-1.03-3.97-2.07-6.27-3.05-.23-.1-.46-.2-.69-.29-1.1-.45-2.18-.86-3.22-1.23-2.65-.94-5.13-1.62-7.34-2.13v-6.85ZM79.66,50.92c.46-.1.93-.19,1.4-.27.03,0,.06,0,.09-.01.49-.08.99-.15,1.5-.21.01,0,.03,0,.05,0,.22-.03.45-.05.67-.06.21-.02.42-.03.63-.05.15,0,.3-.02.46-.02.13,0,.27-.01.4-.02.18,0,.36-.01.54-.01h.03s.06,0,.06,0c.02,0,.04,0,.06,0h.04s.07,0,.1,0h.09c1.96.03,3.88.25,5.73.66v5.49c-1.83-.48-3.75-.76-5.72-.79h-.03s-.03,0-.06,0h0s-.07,0-.1,0h-.04s-.04,0-.06,0-.03,0-.06,0h-.03s-.07,0-.11,0c-.18,0-.35,0-.53.01-.08,0-.16,0-.24.01-.2,0-.39.02-.59.04-.21.01-.41.03-.61.06-.2.02-.39.04-.59.07-.03,0-.06,0-.1.01-.17.02-.34.05-.51.07-.83.13-1.64.3-2.44.51v-5.49ZM47.98,85.11c-1.45-.29-3-.71-4.6-1.28-.53-.19-1.07-.4-1.61-.63-1.71-.71-3.22-1.52-4.56-2.34,3.51-4.08,9.34-9.89,17.92-14.78-.67,2.16-1.34,4.35-1.99,6.57-.28.94-.55,1.87-.82,2.8-.97,3.34-1.89,6.64-2.76,9.9-.53-.06-1.05-.14-1.58-.25ZM75.63,67.62c0,.49-.15.97-.42,1.39-.9,1.39-2,2.93-3.34,4.55-.91,1.09-1.92,2.22-3.06,3.35-1.32,1.32-2.81,2.65-4.47,3.93-.23.18-.46.35-.69.52h0s0,0,0,0h0c-.23.17-.45.33-.68.49-.27.2-.56.39-.84.56-1.34.86-2.76,1.55-4.25,2.04-2.02.69-4.15,1.04-6.3,1.02l2.41-8.61c1.05-.72,2.28-1.5,3.62-2.3h0c1.73-1.03,3.66-2.08,5.68-3.03.75-.35,1.5-.69,2.27-1,1.2-.5,2.36-.93,3.48-1.32,2.39-.82,4.61-1.41,6.6-1.84v.24ZM75.63,65.3c-2.21.51-4.68,1.19-7.34,2.13-1.05.36-2.12.78-3.22,1.23-.24.09-.47.19-.69.29-2.31.97-4.4,2.01-6.27,3.05-1.18.66-2.28,1.31-3.29,1.94l.08-.28,2.46-8.77c1.71-.9,3.4-1.68,5.03-2.37,1.7-.72,3.34-1.33,4.91-1.86,2.37-.79,4.56-1.38,6.51-1.82,0,0,0,0,0,0,.64-.14,1.25-.27,1.83-.39v6.85ZM75.63,56.5c-2.28.42-5.05,1.05-8.15,2.03-.85.27-1.72.56-2.62.88h0c-3.36,1.21-7.01,2.82-10.79,4.99-8.94,5.13-14.91,11.24-18.42,15.44-1.24-.86-2.29-1.71-3.13-2.47,2.9-4.15,9.27-12.08,20.31-17.67,5.76-2.92,11.23-4.41,15.72-5.17,1.02-.17,1.98-.31,2.89-.41,1.59-.18,3-.27,4.19-.32v2.69ZM93.89,72.91c-.18-.06-.36-.11-.54-.15-.21-.06-.42-.12-.64-.17-.15-.04-.3-.08-.45-.11-.18-.04-.37-.09-.55-.12-.5-.11-1-.2-1.5-.28-.18-.03-.36-.06-.54-.08-.13-.02-.26-.04-.39-.06-.13-.02-.27-.03-.4-.05-.18-.02-.36-.04-.55-.06-.38-.04-.77-.07-1.15-.09-.17-.01-.33-.02-.5-.03-.3-.01-.6-.02-.9-.03-.05,0-.1,0-.15,0h-.05s-.02,0-.03,0h-.02c-.05,0-.1,0-.15,0-.3,0-.6.01-.9.03-.17,0-.33.01-.5.03-.39.02-.77.05-1.15.09-.18.02-.37.03-.55.06-.13.02-.27.03-.4.05-.13.02-.26.03-.39.06-.18.03-.36.05-.54.08-.51.08-1.01.18-1.5.28-.18.04-.37.08-.55.12-.15.03-.3.07-.45.11-.21.05-.42.11-.64.17-.18.05-.36.1-.54.15-.18.05-.36.11-.54.16.38-.83.85-1.73,1.42-2.67.51-.83,1.02-1.57,1.53-2.23v-3.52c.75-.08,1.5-.15,2.27-.2.25-.02.5-.03.75-.05.24-.01.47-.03.71-.03.31-.01.61-.03.92-.03.2,0,.4,0,.6-.01.16,0,.32,0,.48,0h.39c.16,0,.32,0,.48,0,.2,0,.4,0,.6.01.31,0,.61.02.92.03.24,0,.47.02.71.03.25.01.5.03.75.05.76.05,1.52.12,2.27.2v3.52c.5.66,1.02,1.4,1.53,2.23.57.94,1.04,1.84,1.42,2.67-.18-.06-.36-.11-.54-.16ZM113.26,84.46c-1.48-.5-2.91-1.18-4.25-2.04-.28-.18-.57-.36-.84-.56-.23-.16-.45-.33-.68-.49h0s0,0,0-.01h0c-.23-.17-.46-.34-.69-.52-1.66-1.28-3.15-2.61-4.47-3.93-1.14-1.13-2.15-2.25-3.06-3.35-1.34-1.62-2.44-3.16-3.34-4.55-.27-.42-.42-.9-.42-1.39v-.24c1.99.43,4.21,1.02,6.6,1.84,1.13.39,2.29.82,3.48,1.32.76.32,1.52.65,2.27,1,2.01.95,3.95,2,5.68,3.02h0c.24.15.48.29.72.44,0,0,.02,0,.03.02,0,0,.01,0,.02,0,.13.08.26.16.39.24.39.24.75.47,1.11.7.48.31.93.61,1.35.9l2.41,8.61c-2.15.02-4.28-.33-6.3-1.02ZM129.36,83.21c-.54.23-1.08.44-1.61.63-1.6.57-3.15.99-4.6,1.28-.53.11-1.05.19-1.58.25-.87-3.26-1.79-6.57-2.76-9.9-.27-.93-.54-1.86-.82-2.8-.47-1.58-.94-3.14-1.41-4.69-.19-.63-.39-1.26-.58-1.88.41.23.81.47,1.2.7.24.14.48.29.72.43.18.11.36.22.54.33.21.13.43.27.64.4.31.2.62.4.93.6h0c.42.28.82.56,1.23.84.46.32.91.65,1.35.97l.66.49c.21.16.43.33.64.49.03.02.05.04.07.06.35.27.69.54,1.03.81,1.25,1.01,2.4,2.01,3.47,3,.17.15.34.31.51.47.19.18.37.36.56.53.27.26.53.51.78.77.03.03.06.06.09.09.15.15.3.3.45.45.37.37.72.74,1.06,1.1.18.19.36.38.52.57.54.59,1.04,1.15,1.5,1.68-1.33.82-2.85,1.63-4.56,2.34ZM114.29,57.88c1.32.54,2.66,1.14,4.01,1.83,11.03,5.6,17.41,13.52,20.31,17.67-.84.75-1.89,1.61-3.13,2.47-.33-.39-.68-.81-1.05-1.23-.12-.14-.25-.29-.38-.43-.61-.68-1.27-1.4-1.99-2.14-.11-.11-.21-.22-.33-.33-.43-.44-.89-.89-1.36-1.35-.45-.43-.91-.86-1.39-1.3-.16-.15-.32-.29-.49-.44-.16-.15-.33-.3-.5-.44-.17-.15-.34-.3-.51-.44-.51-.45-1.05-.89-1.61-1.34-.21-.16-.41-.33-.62-.49-.43-.34-.88-.69-1.34-1.02-.23-.17-.46-.34-.69-.51-.57-.42-1.17-.84-1.78-1.25-.35-.24-.71-.48-1.07-.71-1.05-.69-2.16-1.36-3.3-2.02-.93-.54-1.85-1.03-2.76-1.5h0s-.02,0-.03-.02h0s-.01,0-.02,0c-.31-.16-.63-.32-.94-.48-.72-.35-1.43-.69-2.13-1-.27-.12-.54-.24-.81-.36-.3-.13-.61-.26-.91-.39-.19-.08-.39-.16-.58-.24-.3-.12-.59-.24-.88-.35-.26-.1-.51-.2-.77-.3-.32-.12-.64-.24-.95-.35h0c-.9-.33-1.77-.62-2.62-.89-3.09-.98-5.87-1.61-8.15-2.03v-2.69c1.19.05,2.6.14,4.19.32.91.1,1.87.24,2.89.41.28.05.57.1.85.15.3.06.61.12.93.18.28.06.56.12.84.18.3.07.61.14.92.21.25.06.5.12.75.18.19.05.39.09.59.15.21.06.43.12.65.18.24.06.49.13.74.21.22.06.45.13.67.2.04,0,.08.02.12.03.23.07.47.15.71.23,0,0,0,0,.01,0,.25.08.5.16.75.25.26.09.51.18.78.27.18.06.36.13.55.2.12.04.24.09.36.13.22.08.44.17.66.26t0,0c.24.09.49.19.74.3.02,0,.04.01.06.02"/>
    <path class="cls-7" d="M114.29,57.88c1.32.54,2.66,1.14,4.01,1.83,11.03,5.6,17.41,13.52,20.31,17.67-.84.75-1.89,1.61-3.13,2.47-.33-.39-.68-.81-1.05-1.23-.12-.14-.25-.29-.38-.43-.61-.68-1.27-1.4-1.99-2.14-.11-.11-.21-.22-.33-.33-.43-.44-.89-.89-1.36-1.35-.45-.43-.91-.86-1.39-1.3-.16-.15-.32-.29-.49-.44-.16-.15-.33-.3-.5-.44-.17-.15-.34-.3-.51-.44-.51-.45-1.05-.89-1.61-1.34-.21-.16-.41-.33-.62-.49-.43-.34-.88-.69-1.34-1.02-.23-.17-.46-.34-.69-.51-.57-.42-1.17-.84-1.78-1.25-.35-.24-.71-.48-1.07-.71-1.05-.69-2.16-1.36-3.3-2.02-.93-.54-1.85-1.03-2.76-1.5h0s-.02,0-.03-.02h0s-.01,0-.02,0c-.31-.16-.63-.32-.94-.48-.72-.35-1.43-.69-2.13-1-.27-.12-.54-.24-.81-.36-.3-.13-.61-.26-.91-.39-.19-.08-.39-.16-.58-.24-.3-.12-.59-.24-.88-.35-.26-.1-.51-.2-.77-.3-.32-.12-.64-.24-.95-.35h0c-.9-.33-1.77-.62-2.62-.89-3.09-.98-5.87-1.61-8.15-2.03v-2.69c1.19.05,2.6.14,4.19.32.91.1,1.87.24,2.89.41.28.05.57.1.85.15.3.06.61.12.93.18.28.06.56.12.84.18.3.07.61.14.92.21.25.06.5.12.75.18.19.05.39.09.59.15.21.06.43.12.65.18.24.06.49.13.74.21.22.06.45.13.67.2.04,0,.08.02.12.03.23.07.47.15.71.23,0,0,0,0,.01,0,.25.08.5.16.75.25.26.09.51.18.78.27.18.06.36.13.55.2.12.04.24.09.36.13.22.08.44.17.66.26t0,0c.24.09.49.19.74.3.02,0,.04.01.06.02"/>
    <path class="cls-7" d="M133.92,80.87c-1.33.82-2.85,1.63-4.56,2.34-.54.23-1.08.44-1.61.63-1.6.57-3.15.99-4.6,1.28-.53.11-1.05.19-1.58.25-.87-3.26-1.79-6.57-2.76-9.9-.27-.93-.54-1.86-.82-2.8-.47-1.58-.94-3.14-1.41-4.69-.19-.63-.39-1.26-.58-1.88.41.23.81.47,1.2.7.24.14.48.29.72.43.18.11.36.22.54.33.21.13.43.27.64.4.31.2.62.4.93.6h0c.42.28.82.56,1.23.84.46.32.91.65,1.35.97l.66.49c.21.16.43.33.64.49.03.02.05.04.07.06.35.27.69.54,1.03.81,1.25,1.01,2.4,2.01,3.47,3,.17.15.34.31.51.47.19.18.37.36.56.53.27.26.53.51.78.77.03.03.06.06.09.09.15.15.3.3.45.45.37.37.72.74,1.06,1.1.18.19.36.38.52.57.54.59,1.04,1.15,1.5,1.68Z"/>
    <path class="cls-7" d="M116.32,73.93c-.64-.4-1.32-.81-2.03-1.22,0,0-.01,0-.02,0,0,0-.01,0-.02-.01,0,0,0,0,0,0-.39-.23-.8-.46-1.22-.69-1.88-1.03-3.97-2.07-6.27-3.05-.23-.1-.46-.2-.69-.29-1.1-.45-2.18-.86-3.22-1.23-2.65-.94-5.13-1.62-7.34-2.13v-6.85c.58.12,1.19.24,1.83.39,0,0,0,0,0,0,1.95.44,4.14,1.03,6.51,1.82,1.56.52,3.21,1.14,4.91,1.86,1.63.69,3.31,1.47,5.03,2.37l.47,1.68h0s.03.09.03.09h0s0,.03,0,.03h0s.33,1.19.33,1.19l1.62,5.79.08.28Z"/>
    <path class="cls-7" d="M119.56,85.49c-2.15.02-4.28-.33-6.3-1.02-1.48-.5-2.91-1.18-4.25-2.04-.28-.18-.57-.36-.84-.56-.23-.16-.45-.33-.68-.49h0s0,0,0-.01h0c-.23-.17-.46-.34-.69-.52-1.66-1.28-3.15-2.61-4.47-3.93-1.14-1.13-2.15-2.25-3.06-3.35-1.34-1.62-2.44-3.16-3.34-4.55-.27-.42-.42-.9-.42-1.39v-.24c1.99.43,4.21,1.02,6.6,1.84,1.13.39,2.29.82,3.48,1.32.76.32,1.52.65,2.27,1,2.01.95,3.95,2,5.68,3.02h0c.24.15.48.29.72.44,0,0,.02,0,.03.02,0,0,.01,0,.02,0,.13.08.26.16.39.24.39.24.75.47,1.11.7.48.31.93.61,1.35.9l2.41,8.61Z"/>
    <path class="cls-7" d="M75.63,67.38v.24c0,.49-.15.97-.42,1.39-.9,1.39-2,2.93-3.34,4.55-.91,1.09-1.92,2.22-3.06,3.35-1.32,1.32-2.81,2.65-4.47,3.93-.23.18-.46.35-.69.52h0s0,0,0,0h0c-.23.17-.45.33-.68.49-.27.2-.56.39-.84.56-1.34.86-2.76,1.55-4.25,2.04-2.02.69-4.15,1.04-6.3,1.02l2.41-8.61c1.05-.72,2.28-1.5,3.62-2.3h0c1.73-1.03,3.66-2.08,5.68-3.03.75-.35,1.5-.69,2.27-1,1.2-.5,2.36-.93,3.48-1.32,2.39-.82,4.61-1.41,6.6-1.84Z"/>
    <path class="cls-7" d="M75.63,58.45v6.85c-2.21.51-4.68,1.19-7.34,2.13-1.05.36-2.12.78-3.22,1.23-.24.09-.47.19-.69.29-2.31.97-4.4,2.01-6.27,3.05-1.18.66-2.28,1.31-3.29,1.94l.08-.28,2.46-8.77c1.71-.9,3.4-1.68,5.03-2.37,1.7-.72,3.34-1.33,4.91-1.86,2.37-.79,4.56-1.38,6.51-1.82,0,0,0,0,0,0,.64-.14,1.25-.27,1.83-.39Z"/>
    <path class="cls-7" d="M55.13,66.09c-.67,2.16-1.34,4.35-1.99,6.57-.28.94-.55,1.87-.82,2.8-.97,3.34-1.89,6.64-2.76,9.9-.53-.06-1.05-.14-1.58-.25-1.45-.29-3-.71-4.6-1.28-.53-.19-1.07-.4-1.61-.63-1.71-.71-3.22-1.52-4.56-2.34,3.51-4.08,9.34-9.89,17.92-14.78Z"/>
    <path class="cls-7" d="M75.63,53.81v2.69c-2.28.42-5.05,1.05-8.15,2.03-.85.27-1.72.56-2.62.88h0c-3.36,1.21-7.01,2.82-10.79,4.99-8.94,5.13-14.91,11.24-18.42,15.44-1.24-.86-2.29-1.71-3.13-2.47,2.9-4.15,9.27-12.08,20.31-17.67,5.76-2.92,11.23-4.41,15.72-5.17,1.02-.17,1.98-.31,2.89-.41,1.59-.18,3-.27,4.19-.32Z"/>
    <path class="cls-2" d="M91.48,50.92v5.49c-1.83-.48-3.75-.76-5.72-.79h0s-.09,0-.09,0h0s-.07,0-.1,0h-.04s-.04,0-.06,0h-.06s-.03,0-.03,0c-.04,0-.07,0-.11,0-.18,0-.35,0-.53.01-.08,0-.16,0-.24.01-.2,0-.39.02-.59.04-.21.01-.41.03-.61.06-.2.02-.39.04-.59.07-.03,0-.06,0-.1.01-.17.02-.34.05-.51.07-.83.13-1.64.3-2.44.51v-5.49c.46-.1.93-.19,1.4-.27.03,0,.06,0,.09-.01.49-.08.99-.15,1.5-.21.01,0,.03,0,.05,0,.22-.03.45-.05.67-.06.21-.02.42-.03.63-.05.15,0,.3-.02.46-.02.13,0,.27-.01.4-.02.18,0,.36-.01.54-.01h.03s.03,0,.06,0,.04,0,.06,0h.04s.07,0,.1,0h0s.04,0,.06,0h.03c1.96.03,3.88.25,5.73.66Z"/>
    <path class="cls-1" d="M85.46,55.61s-.03,0-.06,0h0s.06,0,.06,0Z"/>
    <path class="cls-1" d="M85.73,50.26h0s-.03,0-.06,0h.06Z"/>
    <path class="cls-1" d="M85.74,42.82h0s-.12,0-.12,0c.04,0,.08,0,.12,0Z"/>
    <rect class="cls-1" x="85.73" y="50.26" width=".03" height="0"/>
    <rect class="cls-1" x="85.73" y="55.61" width=".03" height="0"/>
    <path class="cls-1" d="M76.71,73.08c-.03.07-.07.15-.1.21"/>
    <path class="cls-1" d="M114.54,65.79c-.08-.06-.16-.12-.25-.18"/>
    <path class="cls-1" d="M114.26,65.6c-.11-.08-.21-.15-.33-.23"/>
    <path d="M102.15,18.46c-.47,0-.92-.06-1.35-.17-.14-.03-.28,0-.37.12-1.23,1.48-2.62,3.44-3.9,5.9-1.08,2.1-1.81,4.06-2.31,5.74-.06.19-.06.4,0,.58.06.24.21.45.42.6,4.53,3.03,7.52,8.18,7.52,14.04,0,1.09-.1,2.15-.3,3.17-.03.18-.07.36-.11.54-3.71-4.8-9.48-7.93-16-8.07h0c-.06,0-.12,0-.18,0-6.58.08-12.43,3.22-16.17,8.07-.04-.18-.08-.36-.11-.54-.2-1.02-.3-2.08-.3-3.17,0-5.86,2.99-11.01,7.52-14.04.21-.14.36-.36.42-.6.05-.18.05-.39,0-.58-.5-1.68-1.23-3.64-2.31-5.74-1.27-2.46-2.67-4.41-3.9-5.9-.09-.11-.23-.15-.37-.12-.43.11-.89.17-1.35.17-3.32,0-5.97-2.88-5.59-6.27.29-2.57,2.37-4.65,4.95-4.94,3.39-.38,6.27,2.26,6.27,5.58,0,.93-.23,1.81-.63,2.59-.07.13-.06.29.03.41,1.43,1.76,3.02,4.03,4.47,6.83,1.09,2.13,1.88,4.12,2.46,5.88.05.16.17.28.31.35.12.06.26.07.39.03,1.26-.32,2.57-.5,3.92-.52.06,0,.11,0,.16,0,1.3.03,2.55.21,3.76.52.14.03.27.02.39-.03.14-.06.26-.19.31-.35.57-1.76,1.36-3.76,2.46-5.88,1.45-2.81,3.05-5.08,4.47-6.83.09-.12.11-.28.03-.41-.4-.78-.63-1.65-.63-2.59,0-3.32,2.88-5.97,6.27-5.58,2.57.29,4.66,2.37,4.94,4.94.38,3.39-2.27,6.27-5.59,6.27Z"/>
    <path class="cls-1" d="M85.5,101.21c-.05,0-.11,0-.16,0h0s.01,0,.01,0c.05,0,.1,0,.15,0Z"/>
    <path class="cls-1" d="M112.2,88.08s.03.06.04.09c0-.02.01-.04.02-.06-.02,0-.04-.01-.06-.02Z"/>
    <path class="cls-1" d="M85.49,94.88s-.09,0-.14,0h0s0,0,0,0c.05,0,.09,0,.14,0Z"/>
    <path class="cls-1" d="M85.79,101.2h0c-.05,0-.11,0-.16,0,.05,0,.09,0,.15,0h.01Z"/>
    <path class="cls-1" d="M85.51,86.4c-.05,0-.1,0-.15,0h0s.15,0,.15,0Z"/>
    <path class="cls-1" d="M85.79,94.88h0s-.09,0-.14,0c.05,0,.09,0,.14,0h0Z"/>
    <path class="cls-1" d="M85.47,80.11s-.07,0-.11,0h0s.11,0,.11,0Z"/>
    <path class="cls-1" d="M85.78,86.4h0c-.05,0-.1,0-.15,0h.15Z"/>
    <path class="cls-1" d="M112.26,88.1s-.01.04-.02.06c-.02-.03-.03-.06-.04-.09.02,0,.04.01.06.02Z"/>
    <path class="cls-1" d="M85.77,71.68h0c-.05,0-.1,0-.15,0h-.05s.05,0,.07,0h.13Z"/>
    <path class="cls-1" d="M85.51,42.82h-.12s.08,0,.12,0Z"/>
    <path class="cls-1" d="M94.42,73.08c.03.07.07.15.1.21"/>
  </g>
  <g>
    <g>
      <path class="cls-6" d="M314.26,71.23h8.35c.4,0,.72.32.72.72v6.96c0,.4-.32.72-.72.72h-17.98c-1.99,0-3.6-1.61-3.6-3.6v-35.04s0,0,0,0v-4.8c0-1.99,1.61-3.6,3.6-3.6h17.66c.58,0,1.04.47,1.04,1.04v6.64c0,.4-.32.72-.72.72h-8.35c-.4,0-.72.32-.72.72v28.8c0,.4.32.72.72.72Z"/>
      <polygon class="cls-6" points="301.04 40.99 301.03 71.23 301.03 40.99 301.04 40.99"/>
      <path class="cls-6" d="M351.37,32.61h-22.29c-1.99,0-3.6,1.61-3.6,3.6v39.82c0,1.99,1.61,3.6,3.6,3.6h22.29c1.99,0,3.6-1.61,3.6-3.6v-39.82c0-1.99-1.61-3.6-3.6-3.6ZM341.94,71.23h-3.66c-.4,0-.72-.32-.72-.72v-28.8c0-.4.32-.72.72-.72h3.66c.4,0,.72.32.72.72v28.8c0,.4-.32.72-.72.72Z"/>
      <path class="cls-3" d="M210.72,50.13v-13.95c0-1.99-1.61-3.6-3.6-3.6h-24.73c-.4,0-.72.32-.72.72v45.6c0,.4.32.72.72.72h24.73c1.99,0,3.6-1.61,3.6-3.6v-16.67c0-.59-.16-1.16-.48-1.65-.28-.43-.65-.92-1.13-1.4-.8-.78-1.6-1.25-2.16-1.52.57-.31,1.33-.79,2.09-1.53.47-.46.84-.92,1.13-1.35.36-.52.55-1.14.55-1.77ZM198.45,71.22h-3.59c-.4,0-.72-.32-.72-.72v-10.8c0-.4.32-.72.72-.72h3.59c.4,0,.72.32.72.72v10.8c0,.4-.32.72-.72.72ZM198.52,50.58h-3.66c-.4,0-.72-.32-.72-.72v-8.16c0-.4.32-.72.72-.72h3.66c.4,0,.72.32.72.72v8.16c0,.4-.32.72-.72.72Z"/>
      <path class="cls-3" d="M269.4,71.95v6.96c0,.4-.32.72-.72.72h-23.75c-.47,0-.82-.45-.7-.91l9.83-36.58c.12-.46-.23-.91-.7-.91h-7.45c-.4,0-.72-.32-.72-.72v-7.2c0-.4.32-.72.72-.72h22.56c.47,0,.81.45.69.9l-9.59,36.84c-.12.45.22.9.69.9h8.42c.4,0,.72.32.72.72Z"/>
      <path class="cls-3" d="M297.2,71.95v6.96c0,.4-.32.72-.72.72h-23.98c-.47,0-.82-.45-.7-.91l9.82-36.58c.12-.46-.23-.91-.7-.91h-7.45c-.4,0-.72-.32-.72-.72v-7.21c0-.4.32-.72.72-.72h4.65s17.91,0,17.91,0c.47,0,.82.44.7.9l-9.48,36.84c-.12.46.23.9.7.9h8.53c.4,0,.72.32.72.72Z"/>
      <path class="cls-3" d="M241.83,33.3v42.7c0,1.99-1.61,3.6-3.6,3.6h-22.28c-1.99,0-3.6-1.61-3.6-3.6v-42.7c0-.4.32-.72.72-.72h10.75c.4,0,.72.32.72.72v37.2c0,.4.32.72.72.72h3.66c.4,0,.72-.32.72-.72v-37.2c0-.4.32-.72.72-.72h10.75c.4,0,.72.32.72.72Z"/>
    </g>
    <g>
      <path class="cls-5" d="M181.67,102.51c0-1.89.36-3.65,1.07-5.28.72-1.63,1.71-3.06,2.98-4.28,1.27-1.22,2.74-2.18,4.41-2.86,1.67-.69,3.46-1.03,5.36-1.03,1.75,0,3.43.3,5.05.9,1.62.6,3.05,1.47,4.29,2.62,1.24,1.14,2.15,2.54,2.74,4.18l-5.04,2.27c-.57-1.44-1.47-2.59-2.71-3.43-1.24-.84-2.69-1.27-4.37-1.27-1.54,0-2.92.37-4.13,1.1-1.21.73-2.17,1.72-2.88,2.95-.7,1.23-1.05,2.59-1.05,4.08s.35,2.89,1.04,4.13c.69,1.24,1.65,2.24,2.86,2.98,1.21.74,2.6,1.11,4.17,1.11,1.68,0,3.15-.45,4.41-1.35,1.26-.9,2.17-2.06,2.74-3.48l5.07,2.3c-.61,1.64-1.55,3.04-2.83,4.2-1.27,1.16-2.73,2.04-4.37,2.65-1.65.61-3.34.92-5.09.92-1.93,0-3.73-.34-5.39-1.02-1.67-.68-3.13-1.62-4.37-2.83-1.25-1.21-2.22-2.63-2.91-4.26-.69-1.63-1.04-3.39-1.04-5.28Z"/>
      <path class="cls-5" d="M232.75,105.01c0,2.22-.4,4.15-1.19,5.78-.79,1.63-1.98,2.89-3.57,3.78-1.59.89-3.58,1.33-5.99,1.33s-4.46-.46-6.04-1.37c-1.58-.91-2.74-2.17-3.49-3.78-.75-1.61-1.12-3.46-1.12-5.55v-15.76h5.55l-.03,15.63c0,1.93.5,3.35,1.5,4.26,1,.91,2.22,1.37,3.68,1.37,1.7,0,3.01-.5,3.91-1.51.91-1.01,1.36-2.34,1.36-3.98v-15.76h5.44v15.56Z"/>
      <path class="cls-5" d="M259.17,115.54h-6.13l-5.51-9.36h-3.34v9.36h-5.51v-26.09h10.52c1.72,0,3.3.31,4.73.92,1.43.61,2.57,1.53,3.42,2.75.85,1.22,1.28,2.75,1.28,4.6,0,3.8-1.83,6.34-5.48,7.63l6.03,10.2ZM248.79,101.18c.68,0,1.35-.11,2.01-.33.66-.22,1.2-.58,1.62-1.07.42-.49.63-1.14.63-1.97s-.22-1.5-.65-1.97c-.43-.47-.97-.8-1.62-1-.65-.2-1.32-.3-2.02-.3h-4.56v6.63h4.59Z"/>
      <g>
        <path class="cls-5" d="M284.28,108.34c0,1.33-.27,2.45-.82,3.36-.54.91-1.27,1.65-2.18,2.22-.91.57-1.92.98-3.05,1.23-1.12.25-2.27.38-3.45.38h-11.23v-26.09h11.06c1.43,0,2.8.25,4.1.75,1.3.5,2.36,1.26,3.18,2.28.82,1.02,1.23,2.31,1.23,3.86,0,1.29-.34,2.39-1,3.32-.67.92-1.58,1.67-2.74,2.25v.07c1.59.58,2.8,1.35,3.64,2.32.84.97,1.26,2.32,1.26,4.05ZM277.71,97.18c0-.73-.19-1.3-.58-1.7-.39-.4-.87-.68-1.46-.83-.59-.16-1.19-.23-1.8-.23h-4.93v5.63h4.56c.66,0,1.31-.07,1.96-.22.65-.14,1.18-.43,1.62-.85s.65-1.02.65-1.8ZM278.91,107.64c0-.82-.22-1.44-.66-1.85-.44-.41-1-.69-1.67-.85-.67-.16-1.34-.23-2.02-.23h-5.61v5.83h5.78c.66,0,1.31-.08,1.96-.23.65-.16,1.18-.44,1.6-.87.42-.42.63-1.02.63-1.8Z"/>
        <path class="cls-5" d="M294.39,89.45v26.09h-5.51v-26.09h5.51Z"/>
      </g>
      <g>
        <path class="cls-5" d="M306.06,97.54v17.99h-5.45v-26.09h6.3l11.57,17.02v-17.02h5.44v26.09h-5.61l-12.25-17.99Z"/>
        <path class="cls-5" d="M334.14,102.48c0,1.51.35,2.9,1.04,4.16.69,1.27,1.66,2.28,2.89,3.03,1.24.76,2.66,1.13,4.27,1.13,1.82,0,3.34-.41,4.56-1.23,1.22-.82,2-1.88,2.31-3.17h-8.1v-4.9h13.85v2.03c0,2.02-.35,3.81-1.04,5.37-.69,1.55-1.63,2.85-2.83,3.88-1.19,1.03-2.54,1.82-4.05,2.35-1.51.53-3.08.8-4.71.8-2.06,0-3.94-.35-5.63-1.05s-3.15-1.66-4.37-2.88c-1.22-1.22-2.17-2.64-2.83-4.26-.66-1.62-.99-3.36-.99-5.23s.36-3.68,1.09-5.3c.73-1.62,1.73-3.05,3.01-4.28,1.28-1.23,2.76-2.19,4.42-2.86,1.67-.68,3.46-1.02,5.36-1.02,1.7,0,3.23.23,4.58.68,1.35.46,2.52,1.05,3.51,1.78.99.73,1.8,1.53,2.45,2.38.65.85,1.12,1.69,1.41,2.51l-4.87,2.33c-.25-.67-.66-1.35-1.24-2.06-.58-.71-1.35-1.31-2.31-1.8-.96-.49-2.16-.73-3.59-.73s-2.86.37-4.1,1.1c-1.24.73-2.23,1.73-2.98,2.98-.75,1.25-1.12,2.67-1.12,4.25Z"/>
      </g>
    </g>
  </g>
</svg>