<?xml version="1.0" encoding="UTF-8"?>
<svg id="Layer_1" data-name="Layer 1" xmlns="http://www.w3.org/2000/svg" viewBox="0 0 149.57 93.33">
  <defs>
    <style>
      .cls-1 {
        fill: #727272;
      }

      .cls-2 {
        fill: #f4f2f4;
      }
    </style>
  </defs>
  <path class="cls-2" d="M147.17,12.44v80.89H2.39V12.44C2.39,6.92,6.89,2.39,12.44,2.39h124.65c5.55,0,10.07,4.52,10.07,10.05Z"/>
  <path class="cls-2" d="M148.37,12.44v80.89h-1.2V12.44c0-5.53-4.52-10.05-10.07-10.05H12.44C6.89,2.39,2.39,6.92,2.39,12.44v80.89h-1.2V12.44C1.2,6.25,6.22,1.2,12.44,1.2h124.65c6.22,0,11.27,5.05,11.27,11.25Z"/>
  <path class="cls-1" d="M149.57,12.44v80.89h-2.39V12.44c0-5.53-4.52-10.05-10.07-10.05H12.44C6.89,2.39,2.39,6.92,2.39,12.44v80.89H0V12.44C0,5.58,5.58,0,12.44,0h124.65c6.87,0,12.47,5.58,12.47,12.44Z"/>
</svg>