<?xml version="1.0" encoding="UTF-8"?>
<svg id="Layer_1" data-name="Layer 1" xmlns="http://www.w3.org/2000/svg" viewBox="0 0 149.57 69.63">
  <defs>
    <style>
      .cls-1 {
        fill: #727272;
      }

      .cls-2 {
        fill: #f4f2f4;
      }
    </style>
  </defs>
  <path class="cls-2" d="M1.2,69.62v-9c0-5.54,3.36-10.52,8.5-12.59L120.81,3.24c3.34-1.35,6.91-2.04,10.51-2.04h8.7c4.61,0,8.35,3.74,8.35,8.35v60.08"/>
  <path class="cls-1" d="M149.57,69.63h-2.39V9.54c0-3.94-3.21-7.15-7.15-7.15h-8.7c-3.47,0-6.86.66-10.06,1.95L10.14,49.14c-4.71,1.9-7.75,6.4-7.75,11.48v9.01H0v-9.01c0-6.06,3.63-11.43,9.25-13.7L120.37,2.13c3.5-1.41,7.18-2.13,10.96-2.13h8.7c5.26,0,9.54,4.28,9.54,9.54v60.08Z"/>
</svg>